<?xml version="1.0" encoding="utf-8"?>
<!-- Generator: Adobe Illustrator 28.0.0, SVG Export Plug-In . SVG Version: 6.00 Build 0)  -->
<svg version="1.1" id="Layer_1" xmlns="http://www.w3.org/2000/svg" xmlns:xlink="http://www.w3.org/1999/xlink" x="0px" y="0px"
	 viewBox="0 0 239 73" style="enable-background:new 0 0 239 73;" xml:space="preserve">
<style type="text/css">
	.st0{clip-path:url(#SVGID_00000069378589381896999780000006086732548487208088_);}
	.st1{font-family:'GlacialIndifference-Italic';}
	.st2{font-size:24.5587px;}
</style>
<g>
	<g>
		<g>
			<defs>
				<rect id="SVGID_1_" x="35.3" y="10.3" width="60.6" height="52.4"/>
			</defs>
			<clipPath id="SVGID_00000152230682774597486020000011392971626147782309_">
				<use xlink:href="#SVGID_1_"  style="overflow:visible;"/>
			</clipPath>
			<path style="clip-path:url(#SVGID_00000152230682774597486020000011392971626147782309_);" d="M54.8,49.9c0,1.3,0,2.5,0,3.8
				c0,0.1,0,0.2,0.1,0.3C55,54,55.1,54,55.2,54c3.1,0,6.1-0.1,9.2-0.2c3-0.1,6.1-0.2,9.1-0.3c1.7-0.1,3.4-0.1,5.2-0.2
				c0.2,0,0.3-0.1,0.4-0.3c0.4-1.5-0.5-3-1.8-3.6c-0.7-0.4-1.4-0.4-2.2-0.2c-0.7,0.2-1.2,0.6-1.6,1.2c-0.8,1.1-1,2.7-0.3,4
				c0.4,0.8,1.1,1.4,1.8,1.9c0.8,0.6,1.6,1.3,2.4,1.9l5.5,4.4c0.3,0.2,0.7,0.1,0.7-0.3c0-2.1-0.1-4.2-0.1-6.3l-0.4,0.4l5.7-0.4
				c0.9-0.1,1.8-0.1,2.7-0.2c0.8-0.1,1.6-0.4,2.1-1c0.4-0.6,0.6-1.2,0.7-1.9c0.1-0.8,0.1-1.7,0.2-2.6l0.4-5.7l0.7-11.4l0.2-2.8
				l0.1-1.4c0-0.4,0.1-0.9,0-1.3c-0.2-0.9-1.2-0.9-2-0.9l-2.8-0.1l-11.4-0.4L78,26.3c-0.5,0-0.5,0.8,0,0.8l11,0.4l2.8,0.1l1.4,0.1
				c0.4,0,0.9,0,1.3,0.1c0.3,0,0.4,0.1,0.4,0.4c0,0.4,0,0.8-0.1,1.2l-0.2,2.8l-0.7,11l-0.3,5.5l-0.2,2.8c0,0.7-0.1,1.4-0.3,2
				c-0.2,0.6-0.5,1.1-1.1,1.4c-0.7,0.3-1.6,0.3-2.3,0.3l-5.5,0.3l-1.4,0.1c-0.1,0-0.2,0-0.3,0.1c-0.1,0.1-0.1,0.2-0.1,0.3
				c0,2.1,0.1,4.2,0.1,6.3l0.7-0.3l-4.5-3.6l-2.2-1.8c-0.7-0.5-1.4-1.1-2-1.7c-0.5-0.5-0.9-1-1-1.7c-0.1-0.6,0-1.1,0.2-1.6
				c0.4-1,1.4-1.9,2.6-1.7c1.3,0.2,2.4,1.6,2.1,2.9l0.4-0.3c-3.1,0.1-6.1,0.2-9.2,0.3c-3.1,0.1-6.1,0.2-9.1,0.2
				c-1.7,0-3.4,0.1-5.2,0.1l0.4,0.4c0-1.3,0-2.5,0-3.8C55.6,49.3,54.8,49.3,54.8,49.9L54.8,49.9z"/>
			<path style="clip-path:url(#SVGID_00000152230682774597486020000011392971626147782309_);" d="M52.8,11.3
				c-1.6,0.2-3.1,0.5-4.6,1.1c-1.5,0.6-2.9,1.3-4.2,2.3c-1.3,1-2.5,2.1-3.5,3.3c-1,1.3-1.8,2.7-2.5,4.1c-0.5,1.2-0.9,2.4-1.1,3.7
				c-0.2,1.3-0.3,2.6-0.3,3.9c0,1.3,0.2,2.6,0.5,3.8c0.3,1.3,0.8,2.5,1.3,3.6c0.4,0.8,0.8,1.6,1,2.5c0.1,0.7,0.1,1.3-0.1,2
				c-0.4,1.3-1.2,2.4-1.9,3.6c-0.8,1.2-1.6,2.4-1.9,3.7c-0.1,0.3-0.1,0.7-0.2,1c0,0.1,0,0.2,0.1,0.3c0.1,0.1,0.2,0.1,0.3,0.1
				c1.6,0,3.2-0.3,4.8-0.8c1.6-0.5,3-1.2,4.4-2.2c0.7-0.5,1.3-1,1.9-1.6c0.3-0.3,0.5-0.5,0.6-0.9c0.1-0.3,0.1-0.6,0-0.9
				c-0.3-0.7-0.9-1.1-1.7-1.1c-0.4,0-0.8,0.1-1.1,0.3c-0.3,0.2-0.6,0.5-0.7,0.9c-0.3,0.7-0.3,1.4-0.1,2.1c0.3,0.8,0.7,1.4,1.4,1.8
				c0.7,0.5,1.4,0.8,2.2,1c0.8,0.2,1.7,0.4,2.5,0.6c3.6,0.7,7.3,0.7,10.8,0c3.2-0.6,6.2-1.9,8.9-3.8c2.6-1.8,4.6-4,6.2-6.7
				c1.6-2.8,2.5-5.9,2.5-9.1c0.1-3.3-0.6-6.4-2.1-9.4c-1.4-2.8-3.5-5.1-6-6.9c-2.5-1.8-5.3-2.9-8.4-3.4c-0.8-0.1-1.5-0.2-2.3-0.2
				c-0.5,0-0.5,0.8,0,0.8c2.9,0.1,5.6,0.8,8.2,2.2c2.6,1.4,4.7,3.2,6.4,5.6c1.8,2.5,2.8,5.3,3.2,8.3c0.4,3.1,0.1,6.1-1,9
				c-1,2.7-2.7,5.1-4.8,7.1c-2.1,2-4.5,3.5-7.3,4.6c-3.2,1.2-6.6,1.7-10,1.6c-1.7-0.1-3.4-0.3-5.1-0.6c-1.4-0.3-3.1-0.6-4.2-1.7
				c-0.4-0.5-0.7-1-0.7-1.7c0-0.6,0.2-1.2,0.7-1.4c0.3-0.1,0.6-0.1,0.9-0.1c0.2,0,0.4,0.2,0.5,0.4c0,0.1,0.1,0.2,0.1,0.2
				c0,0.1,0,0.2,0,0.3c0,0.1-0.1,0.2-0.2,0.2c-0.1,0.2-0.3,0.3-0.5,0.4c-1.1,1-2.4,1.9-3.8,2.6c-1.4,0.7-2.8,1.1-4.3,1.4
				c-0.7,0.1-1.5,0.2-2.2,0.2l0.4,0.4c0.1-1.3,0.8-2.5,1.5-3.6c0.7-1.1,1.6-2.2,2.1-3.5c0.3-0.6,0.5-1.3,0.5-2
				c0.1-0.8-0.1-1.6-0.4-2.4c-0.3-0.9-0.8-1.6-1.1-2.5c-0.3-0.8-0.6-1.5-0.8-2.3c-0.4-1.6-0.6-3.3-0.6-4.9c0-1.7,0.3-3.3,0.8-4.9
				c0.5-1.5,1.2-2.9,2.1-4.2c0.9-1.3,1.9-2.5,3.2-3.5c1.2-1,2.5-1.8,3.9-2.5c1.4-0.7,2.8-1.1,4.4-1.4c0.4-0.1,0.7-0.1,1.1-0.2
				c0.1,0,0.2,0,0.3-0.1c0.1-0.1,0.1-0.2,0.1-0.3c0-0.1,0-0.2-0.1-0.3C53,11.4,52.9,11.3,52.8,11.3L52.8,11.3z"/>
			<path style="clip-path:url(#SVGID_00000152230682774597486020000011392971626147782309_);" d="M48.9,31.3c0.4,0,0.7-0.1,1-0.4
				c0.2-0.2,0.3-0.4,0.4-0.7c0.1-0.3,0-0.5-0.1-0.8c-0.1-0.3-0.3-0.5-0.5-0.6c-0.2-0.2-0.5-0.2-0.8-0.2c-0.4,0-0.7,0.1-1,0.4
				c-0.2,0.2-0.3,0.4-0.4,0.7c-0.1,0.3,0,0.5,0.1,0.8c0.1,0.3,0.3,0.5,0.5,0.6C48.4,31.2,48.6,31.3,48.9,31.3L48.9,31.3z"/>
			<path style="clip-path:url(#SVGID_00000152230682774597486020000011392971626147782309_);" d="M57.9,31.3c0.4,0,0.7-0.1,1-0.4
				c0.2-0.2,0.3-0.4,0.4-0.7c0.1-0.3,0-0.5-0.1-0.8c-0.1-0.3-0.3-0.5-0.5-0.6c-0.2-0.2-0.5-0.2-0.8-0.2c-0.4,0-0.7,0.1-1,0.4
				c-0.2,0.2-0.3,0.4-0.4,0.7c-0.1,0.3,0,0.5,0.1,0.8c0.1,0.3,0.3,0.5,0.5,0.6C57.3,31.2,57.6,31.3,57.9,31.3L57.9,31.3z"/>
			<path style="clip-path:url(#SVGID_00000152230682774597486020000011392971626147782309_);" d="M66.8,31.3c0.4,0,0.7-0.1,1-0.4
				c0.2-0.2,0.3-0.4,0.4-0.7c0.1-0.3,0-0.5-0.1-0.8c-0.1-0.3-0.3-0.5-0.5-0.6c-0.2-0.2-0.5-0.2-0.8-0.2c-0.4,0-0.7,0.1-1,0.4
				c-0.2,0.2-0.3,0.4-0.4,0.7c-0.1,0.3,0,0.5,0.1,0.8c0.1,0.3,0.3,0.5,0.5,0.6C66.2,31.2,66.5,31.3,66.8,31.3L66.8,31.3z"/>
		</g>
	</g>
	<g>
		<text transform="matrix(1 0 0 1 105.4889 49.7197)" class="st1 st2">ChitChat</text>
	</g>
</g>
</svg>
